<svg width="521" height="201" viewBox="0 0 521 201" fill="none" xmlns="http://www.w3.org/2000/svg">
<g clip-path="url(#clip0_504_5995)">
<path d="M518.018 80.0161H440.039C434.732 80.0119 429.642 82.1148 425.885 85.8627C422.129 89.6106 420.015 94.6966 420.007 100.003V120.002L476.535 120.017C472.89 130.314 466.502 139.42 458.06 146.353C449.619 153.285 439.445 157.781 428.635 159.355C417.826 160.929 406.792 159.522 396.724 155.284C386.656 151.047 377.937 144.141 371.506 135.311C365.075 126.482 361.178 116.064 360.234 105.181C359.29 94.2988 361.336 83.3653 366.151 73.5604C370.965 63.7554 378.366 55.4514 387.554 49.5442C396.743 43.637 407.369 40.351 418.288 40.0408C418.865 40.0248 420.009 40.0036 420.009 40.0036L499.981 40.0008C490.675 27.577 478.6 17.4942 464.715 10.5532C450.831 3.61221 435.519 0.00417265 419.996 0.0156523V0.0167523C418.448 0.0169323 416.894 0.052089 415.336 0.122222C363.61 2.46298 321.926 44.6241 320.076 96.3701C319.601 109.797 321.834 123.181 326.641 135.727C331.448 148.272 338.731 159.722 348.057 169.393C357.382 179.065 368.558 186.76 380.92 192.021C393.282 197.282 406.577 200.001 420.011 200.016C420.095 200.016 420.176 200.011 420.26 200.011C421.561 200.008 422.856 199.975 424.146 199.924C424.355 199.915 424.565 199.91 424.773 199.9C426.138 199.837 427.495 199.745 428.844 199.625C428.974 199.614 429.104 199.603 429.233 199.591C454.062 197.304 477.141 185.824 493.945 167.403C510.748 148.981 520.064 124.947 520.066 100.013C520.066 97.2404 519.748 87.0532 518.018 80.0161Z" fill="black"/>
<path d="M293.489 160.001H160.01V200.001H322.045C310.248 188.451 300.581 174.91 293.489 160.001Z" fill="black"/>
<path d="M280.007 99.9977C280.008 93.3067 280.485 86.6243 281.435 80.001H160.01V120.001H281.435C280.485 113.376 280.008 106.691 280.007 99.9977V99.9977Z" fill="black"/>
<path d="M322.038 0.000976562H160.01V40.001H293.486C300.577 25.0921 310.242 11.5512 322.038 0.000976562V0.000976562Z" fill="black"/>
<path d="M120.005 39.9977L120.004 0L0 0.00043V19.9999C-5.25313e-10 22.6264 0.517317 25.227 1.52241 27.6535C2.52751 30.08 4.0007 32.2848 5.85787 34.1419C7.71504 35.999 9.91982 37.4722 12.3463 38.4772C14.7728 39.4823 17.3735 39.9995 19.9999 39.9995L79.987 39.9983L80.0045 200.001L120.003 200L120.003 39.9977H120.005Z" fill="black"/>
</g>
<defs>
<clipPath id="clip0_504_5995">
<rect width="520.065" height="200.016" fill="white"/>
</clipPath>
</defs>
</svg>
